#define images_width 102
#define images_height 102
static unsigned char images_bits[] = {
   0x00, 0x00, 0x00, 0x00, 0x00, 0x00, 0x00, 0x00, 0x00, 0x00, 0x00, 0x00,
   0x00, 0x00, 0x00, 0x00, 0x00, 0x00, 0x00, 0x00, 0x00, 0x00, 0x00, 0x00,
   0x00, 0x00, 0x00, 0x00, 0x00, 0x00, 0x00, 0x00, 0x00, 0x00, 0x00, 0x00,
   0x00, 0x00, 0x00, 0x00, 0x00, 0x00, 0x00, 0x00, 0x00, 0x00, 0x00, 0x00,
   0x00, 0x00, 0x00, 0x00, 0x00, 0x00, 0x00, 0x00, 0x00, 0x00, 0x00, 0x00,
   0x00, 0x00, 0x00, 0x00, 0x00, 0x00, 0x00, 0x00, 0x00, 0x00, 0x00, 0x00,
   0x00, 0x00, 0x00, 0x00, 0x00, 0x00, 0x00, 0x00, 0x00, 0x00, 0x00, 0x00,
   0x00, 0x00, 0x00, 0x00, 0x00, 0x00, 0x00, 0x00, 0x00, 0x01, 0x00, 0x00,
   0x00, 0x00, 0x00, 0x00, 0x00, 0x00, 0x00, 0x00, 0x00, 0x00, 0x00, 0x00,
   0x00, 0x00, 0x00, 0x00, 0x00, 0x00, 0x00, 0x00, 0x00, 0x00, 0x00, 0x00,
   0x00, 0x00, 0x00, 0x00, 0x00, 0x00, 0x00, 0x00, 0x00, 0x00, 0x00, 0x00,
   0x00, 0x00, 0x00, 0x00, 0x00, 0x00, 0x00, 0x00, 0x00, 0x00, 0x00, 0x00,
   0x00, 0x00, 0x00, 0x00, 0x00, 0x00, 0x00, 0x00, 0x00, 0x00, 0x00, 0x00,
   0x00, 0x00, 0x00, 0x00, 0x00, 0x00, 0x00, 0x00, 0x00, 0x00, 0x00, 0x00,
   0x00, 0x00, 0x00, 0x00, 0x00, 0x00, 0x00, 0x00, 0x00, 0x00, 0x00, 0x00,
   0x00, 0x00, 0x00, 0x00, 0x00, 0x00, 0x00, 0x00, 0x00, 0x00, 0x00, 0x00,
   0x00, 0x00, 0x00, 0x00, 0x00, 0x00, 0x00, 0x00, 0x00, 0x00, 0x00, 0x00,
   0x00, 0x00, 0x00, 0x00, 0x00, 0x00, 0x00, 0x00, 0x00, 0x00, 0x00, 0x00,
   0x00, 0x00, 0x00, 0x00, 0x00, 0x00, 0x00, 0x00, 0x00, 0x00, 0x00, 0x00,
   0x00, 0x00, 0x00, 0x00, 0x00, 0x00, 0x00, 0x00, 0x00, 0x00, 0x00, 0x00,
   0x00, 0x00, 0x00, 0x00, 0x00, 0x00, 0x00, 0x00, 0x00, 0x00, 0x00, 0x00,
   0x00, 0x00, 0x00, 0x00, 0x00, 0x00, 0x00, 0x00, 0x00, 0x00, 0x00, 0x00,
   0x00, 0x00, 0x00, 0x00, 0x00, 0x00, 0x00, 0x80, 0x00, 0x00, 0x00, 0x00,
   0xf0, 0x00, 0x00, 0x00, 0x00, 0x00, 0x00, 0x00, 0x00, 0x00, 0x40, 0x00,
   0x00, 0xf0, 0x01, 0x00, 0x00, 0x00, 0x00, 0x00, 0x00, 0x00, 0x00, 0x00,
   0x00, 0x00, 0xf0, 0x00, 0x00, 0x00, 0x00, 0x00, 0x00, 0x00, 0x00, 0x00,
   0x00, 0x00, 0x00, 0xf0, 0x01, 0x00, 0x00, 0x00, 0x00, 0x00, 0x00, 0x80,
   0x00, 0x00, 0x00, 0x00, 0xf0, 0x00, 0x00, 0x00, 0x00, 0x00, 0x00, 0x00,
   0x00, 0x00, 0x00, 0x00, 0x00, 0xf0, 0x01, 0x00, 0x00, 0x00, 0x00, 0x00,
   0x00, 0x00, 0x00, 0x00, 0x00, 0x00, 0xf0, 0x00, 0x00, 0x00, 0x00, 0x00,
   0x00, 0x00, 0x00, 0x00, 0x40, 0x00, 0xe0, 0xff, 0xff, 0x00, 0x00, 0xc0,
   0xff, 0xff, 0x01, 0x80, 0x00, 0x00, 0x00, 0xe0, 0xff, 0x7f, 0x00, 0x00,
   0xc0, 0xff, 0xff, 0x01, 0x00, 0x00, 0x00, 0x10, 0xe0, 0xff, 0xff, 0x00,
   0x00, 0x80, 0xff, 0xff, 0x01, 0x00, 0x00, 0x00, 0x00, 0xe0, 0xdf, 0xff,
   0x80, 0x00, 0xc0, 0xff, 0xff, 0x01, 0x00, 0x00, 0x40, 0x00, 0x40, 0xf0,
   0x29, 0x00, 0x20, 0x80, 0x52, 0xaa, 0x00, 0x82, 0x00, 0x00, 0x00, 0x00,
   0xf0, 0x00, 0x00, 0x01, 0x00, 0x00, 0x00, 0x00, 0x00, 0x00, 0x40, 0x00,
   0x00, 0xf0, 0x01, 0x00, 0x00, 0x00, 0x00, 0x00, 0x00, 0x80, 0x00, 0x00,
   0x00, 0x00, 0xf0, 0x00, 0x80, 0x00, 0x00, 0x00, 0x00, 0x00, 0x02, 0x00,
   0x40, 0x10, 0x00, 0xf0, 0x00, 0x00, 0x20, 0x00, 0x00, 0x00, 0x00, 0x80,
   0x00, 0x00, 0x00, 0x00, 0xf0, 0x00, 0x80, 0x00, 0x00, 0x00, 0x00, 0x00,
   0x00, 0x00, 0x40, 0x00, 0x00, 0xf0, 0x01, 0x00, 0x40, 0x00, 0x00, 0x00,
   0x00, 0x82, 0x00, 0x00, 0x10, 0x00, 0xb0, 0x00, 0x00, 0x01, 0x00, 0x00,
   0x00, 0x00, 0x00, 0x00, 0x40, 0x00, 0x00, 0x00, 0x00, 0x80, 0x00, 0x00,
   0x00, 0x00, 0x00, 0x81, 0x00, 0x40, 0x00, 0x00, 0x00, 0x00, 0x00, 0x00,
   0x00, 0x00, 0x00, 0x00, 0x00, 0x00, 0x00, 0x22, 0x00, 0x00, 0x00, 0x00,
   0x84, 0x00, 0x00, 0x00, 0x80, 0x80, 0x00, 0x40, 0x40, 0x00, 0x00, 0x00,
   0x50, 0x00, 0x00, 0x00, 0x00, 0x00, 0x01, 0x00, 0x00, 0x00, 0x00, 0x00,
   0x00, 0x00, 0x20, 0x02, 0x00, 0x00, 0x10, 0x88, 0x00, 0x40, 0x00, 0x05,
   0x00, 0x00, 0x04, 0x02, 0x00, 0x00, 0x00, 0x10, 0x00, 0x00, 0x00, 0x04,
   0x10, 0x00, 0x22, 0x81, 0x00, 0x28, 0x00, 0x88, 0x04, 0x80, 0x00, 0x40,
   0x10, 0xc0, 0xaa, 0x24, 0x00, 0x20, 0x40, 0xd5, 0x92, 0x40, 0x04, 0x00,
   0x00, 0x00, 0x00, 0x00, 0x00, 0x08, 0x04, 0x01, 0x00, 0x00, 0x00, 0x80,
   0x00, 0x40, 0x41, 0x02, 0x00, 0x00, 0x80, 0x00, 0x00, 0x00, 0x00, 0x40,
   0x08, 0x00, 0x00, 0x08, 0x08, 0x00, 0x80, 0x20, 0x10, 0x00, 0x00, 0x00,
   0x04, 0x82, 0x00, 0x40, 0x00, 0x00, 0x89, 0x08, 0x04, 0x21, 0x49, 0x84,
   0x48, 0x20, 0x00, 0x00, 0x00, 0x92, 0x10, 0x00, 0x00, 0x00, 0x00, 0x00,
   0x20, 0x00, 0x08, 0x88, 0x00, 0x40, 0x00, 0x50, 0x55, 0x6b, 0x21, 0x22,
   0xa2, 0x8a, 0xaa, 0x21, 0x01, 0x00, 0x00, 0x24, 0x05, 0x00, 0x00, 0x0a,
   0x08, 0x28, 0x00, 0x00, 0x04, 0x88, 0x00, 0x40, 0x00, 0x00, 0x00, 0x00,
   0x88, 0x40, 0x02, 0x00, 0x00, 0x20, 0x11, 0x00, 0x00, 0x49, 0x01, 0x00,
   0x00, 0x20, 0x08, 0x01, 0x00, 0x00, 0x00, 0x80, 0x00, 0x40, 0x00, 0x00,
   0x00, 0x00, 0x20, 0x21, 0x00, 0x00, 0x00, 0x80, 0x12, 0x00, 0x00, 0x29,
   0x00, 0x00, 0x00, 0x40, 0x84, 0x00, 0x00, 0x00, 0x00, 0x80, 0x00, 0x40,
   0x20, 0x00, 0x00, 0x00, 0x80, 0x10, 0x00, 0x00, 0x00, 0x00, 0x12, 0x00,
   0x00, 0x05, 0x00, 0x00, 0x00, 0x00, 0x42, 0x00, 0x00, 0x00, 0x00, 0x89,
   0x00, 0x40, 0x10, 0x00, 0x00, 0x00, 0x80, 0x08, 0x00, 0x00, 0x00, 0x00,
   0x20, 0x00, 0x00, 0x12, 0x00, 0x00, 0x00, 0x00, 0x62, 0x00, 0x00, 0x00,
   0x00, 0x82, 0x00, 0x40, 0x00, 0x00, 0x01, 0x18, 0x80, 0x04, 0x00, 0x00,
   0x00, 0x00, 0x14, 0x00, 0x40, 0x15, 0x80, 0x03, 0x3c, 0x00, 0x51, 0x00,
   0x00, 0x00, 0x00, 0xc2, 0x00, 0x40, 0x00, 0xe0, 0x07, 0x7c, 0x00, 0x02,
   0xc0, 0xff, 0xff, 0x01, 0x0a, 0x00, 0x00, 0x15, 0xc0, 0x0f, 0x7f, 0x00,
   0x29, 0x80, 0xff, 0xff, 0x01, 0x90, 0x00, 0x40, 0x00, 0x80, 0x9f, 0x3f,
   0x00, 0x21, 0xc0, 0xff, 0xff, 0x01, 0x22, 0x00, 0x40, 0x15, 0x00, 0xff,
   0x0f, 0x00, 0x25, 0xc0, 0xff, 0xff, 0x01, 0x8a, 0x00, 0x40, 0x11, 0x00,
   0xfe, 0x0f, 0x00, 0x24, 0x80, 0x00, 0x91, 0x00, 0x22, 0x00, 0x00, 0x12,
   0x00, 0xfc, 0x03, 0x80, 0x21, 0x00, 0x00, 0x00, 0x00, 0x94, 0x00, 0x40,
   0x04, 0x00, 0xf8, 0x03, 0x00, 0x25, 0x00, 0x00, 0x00, 0x00, 0x22, 0x00,
   0x40, 0x19, 0x40, 0xdc, 0x03, 0x00, 0x49, 0x00, 0x00, 0x00, 0x00, 0x8a,
   0x00, 0x40, 0x11, 0x04, 0xbe, 0x0f, 0x80, 0x22, 0x00, 0x04, 0x00, 0x00,
   0x28, 0x00, 0x00, 0x12, 0x00, 0xff, 0x8f, 0x00, 0x55, 0xc0, 0xff, 0xff,
   0x05, 0xa3, 0x00, 0xc0, 0x94, 0x88, 0xbf, 0x1f, 0x89, 0x44, 0xc4, 0xff,
   0xff, 0x11, 0x26, 0x00, 0x00, 0x11, 0xe0, 0x0f, 0x3f, 0x00, 0x29, 0xc1,
   0xff, 0xff, 0x01, 0x92, 0x00, 0x40, 0x35, 0xe1, 0x2f, 0x7e, 0x24, 0x65,
   0xc4, 0xff, 0xff, 0x25, 0x26, 0x00, 0x00, 0x12, 0xc4, 0x87, 0x7c, 0x90,
   0x14, 0xc0, 0xff, 0xff, 0x01, 0x92, 0x00, 0xc0, 0x94, 0x80, 0x01, 0x98,
   0x82, 0x65, 0x05, 0x00, 0x00, 0x52, 0xa6, 0x00, 0x00, 0x29, 0x0a, 0x92,
   0x0a, 0x88, 0x28, 0x10, 0x00, 0x00, 0x00, 0x89, 0x00, 0x40, 0x55, 0x48,
   0x22, 0x50, 0x91, 0xd2, 0x42, 0x52, 0x92, 0x2a, 0x2a, 0x00, 0x80, 0x24,
   0x21, 0x48, 0x05, 0xc2, 0x24, 0x04, 0x89, 0x48, 0x40, 0xd5, 0x00, 0x80,
   0x6a, 0x84, 0x02, 0x50, 0x94, 0xca, 0x54, 0x10, 0x82, 0x4a, 0x49, 0x00,
   0x80, 0x44, 0x29, 0x54, 0x85, 0x62, 0x2a, 0x11, 0xa5, 0x14, 0x90, 0x52,
   0x00, 0x80, 0xa9, 0x42, 0x89, 0x28, 0x94, 0x52, 0xa5, 0x08, 0xa1, 0x52,
   0x4a, 0x00, 0x00, 0x95, 0x2a, 0x22, 0xa5, 0x52, 0x2a, 0x45, 0x52, 0x4a,
   0x52, 0x35, 0x00, 0x00, 0x53, 0x4a, 0x4a, 0x24, 0x4a, 0x49, 0x99, 0x44,
   0x92, 0x14, 0x21, 0x00, 0x00, 0xaa, 0xb8, 0xb5, 0xd5, 0x52, 0xaa, 0xa2,
   0xdd, 0x56, 0xab, 0x16, 0x00, 0x00, 0x44, 0x03, 0x00, 0x00, 0x48, 0x95,
   0x0a, 0x00, 0x10, 0x50, 0x19, 0x00, 0x00, 0xac, 0xb4, 0x56, 0x5b, 0xab,
   0xaa, 0xba, 0xaa, 0x4a, 0x95, 0x06, 0x00, 0x00, 0x28, 0xa5, 0x54, 0xa5,
   0x52, 0x52, 0x42, 0x55, 0x55, 0x25, 0x06, 0x00, 0x00, 0xb0, 0xaa, 0x2a,
   0x55, 0xaa, 0x4a, 0x5d, 0xa9, 0xaa, 0x5a, 0x01, 0x00, 0x00, 0xe0, 0xa4,
   0x52, 0xaa, 0x2a, 0x55, 0x91, 0x4a, 0x52, 0xd1, 0x01, 0x00, 0x00, 0x80,
   0xaf, 0xaa, 0x52, 0xa5, 0x94, 0x2a, 0x55, 0x95, 0x7e, 0x00, 0x00, 0x00,
   0x00, 0xf8, 0xff, 0xff, 0xff, 0xff, 0xff, 0xff, 0xff, 0x0b, 0x00, 0x00,
   0x00, 0x00, 0x00, 0x00, 0x00, 0x00, 0x00, 0x00, 0x00, 0x00, 0x00, 0x00,
   0x00, 0x00, 0x00, 0x00, 0x00, 0x00, 0x00, 0x00, 0x00, 0x00, 0x00, 0x00,
   0x00, 0x00, 0x00, 0x00, 0x00, 0x00, 0x00, 0x00, 0x00, 0x00, 0x00, 0x00,
   0x00, 0x00, 0x00, 0x00, 0x00, 0x00, 0x00, 0x00, 0x00, 0x00, 0x00, 0x00,
   0x00, 0x00, 0x00, 0x00, 0x00, 0x00, 0x00, 0x00, 0x00, 0x00, 0x00, 0x00,
   0x00, 0x00, 0x00, 0x00, 0x00, 0x00, 0x00, 0x00, 0x00, 0x00, 0x00, 0x00,
   0x00, 0x00, 0x00, 0x00, 0x00, 0x00 };
